<?xml version="1.0" encoding="utf-8"?>
<!-- Generator: Adobe Illustrator 24.1.0, SVG Export Plug-In . SVG Version: 6.00 Build 0)  -->
<svg version="1.1" id="레이어_1" xmlns="http://www.w3.org/2000/svg" xmlns:xlink="http://www.w3.org/1999/xlink" x="0px"
	 y="0px" viewBox="0 0 300 42" style="enable-background:new 0 0 300 42;" xml:space="preserve">
<g>
	<path d="M13.757,0.845l5.647,14.238c2.283,5.827,7.089,4.986,9.432-0.781l5.527-13.457c1.622,0,3.304,0,4.926,0h5.166v40.31H33.041
		V21.21c0-3.184-0.601-4.806-1.502-4.746c-0.781,0.06-1.802,1.382-2.823,3.905l-8.23,20.726h-2.283l-8.41-20.665
		c-1.141-2.763-2.163-4.025-2.883-3.965c-0.841,0.12-1.322,1.742-1.322,4.746l0.06,19.945H3.845l-0.06-29.376
		c0-4.926-0.721-7.87-3.785-10.934H13.757z"/>
	<path d="M65.479,1.086v40.31H54.065V1.086H65.479z"/>
	<path d="M103.625,0.845h1.742v40.31h-1.742L81.037,13.641c-2.283-2.763-4.145-2.043-4.145,1.562l0.06,25.952H75.27V11.779
		c0-4.926-0.661-7.449-3.785-10.934h13.697l13.216,16.1c2.884,3.484,5.227,2.643,5.227-1.922V0.845z"/>
	<path d="M126.993,0.845h11.414v26.793c0,8.771-6.308,13.877-14.958,13.877c-8.29,0-12.675-6.368-12.675-13.036h1.802
		c0.481,8.29,6.188,11.174,10.633,11.174c3.424,0,3.785-2.643,3.785-8.23V0.845z"/>
	<path d="M175.531,0.845v25.712c0,8.05-2.583,14.958-12.796,14.958c-9.372,0-15.92-5.947-15.92-16.1V0.845h11.414v29.376
		c0,5.527,1.682,8.651,6.608,8.651c5.647,0,8.891-4.626,8.891-12.315V0.845H175.531z"/>
	<path d="M195.835,41.155h-11.294V0.845h11.234v14.057l0.36,0.06c0.841-2.463,3.064-3.664,5.707-3.604l4.025,0.06
		c3.785,0.06,4.866-4.626,4.866-8.53V0.845h12.796c-0.721,6.969-7.269,12.676-17.301,12.375l-4.445-0.12
		c-3.004-0.06-4.566,1.622-4.566,3.845s1.562,4.085,4.566,4.025l2.944-0.06c11.114-0.24,17.121,10.933,17.001,20.245h-11.654v-6.668
		c0-6.908-1.622-11.955-5.527-11.955h-2.583c-2.763,0-5.046-1.141-5.887-3.364l-0.3,0.06L195.835,41.155z"/>
	<path d="M240.348,1.086v40.31h-11.414V1.086H240.348z"/>
	<path d="M289.427,41.155V11.418c0-3.664-1.021-7.269-4.265-7.269c-3.424,0-5.887,3.544-5.887,7.269v29.616h-7.689V11.418
		c0-3.664-1.201-7.269-4.445-7.269c-3.544,0-5.587,3.604-5.587,7.269v29.737h-11.414l-0.06-28.715c0-4.866-1.201-8.11-3.725-11.594
		h14.358l-0.601,7.749c0.721-3.604,4.325-8.11,9.912-8.11c4.626,0,7.569,3.184,7.99,7.749c0.541-4.445,5.587-7.749,10.393-7.749
		c6.188,0,11.594,5.827,11.594,14.658v26.012H289.427z"/>
</g>
</svg>
