
<svg width="99" height="169" viewBox="0 0 99 169" fill="none" xmlns="http://www.w3.org/2000/svg">
<g clip-path="url(#clip0_10_43)">
<path d="M80.5277 19.0368H2.91174V34.1886H80.5277V19.0368Z" fill="#0670FF"/>
<path d="M80.5277 19.0368H2.91174V19.2311H80.5277V19.0368Z" fill="white"/>
<path d="M22.3157 0L2.91174 19.0368H80.5277L100.13 0H22.3157Z" fill="#0670FF"/>
<path d="M80.7258 19.0368V34.1885L100.13 15.346V0.194275L80.7258 19.0368Z" fill="#0670FF"/>
<path d="M70.8257 34.3828H32.0177V129.761H70.8257V34.3828Z" fill="#0670FF"/>
<path d="M52.2138 34.7712H50.2338V35.9368V43.5126H52.2138V34.7712ZM52.2138 44.2896H50.2338C50.2338 44.2896 50.2338 45.8437 50.2338 47.3977V55.1678H52.2138V44.2896ZM52.2138 55.7505H50.2338C50.2338 55.7505 50.2338 57.3046 50.2338 58.8586V66.4345H52.2138V55.7505ZM52.2138 67.2115H50.2338C50.2338 67.2115 50.2338 68.7655 50.2338 70.3195V77.8954H52.2138V67.2115ZM52.2138 78.6724H50.2338C50.2338 78.6724 50.2338 80.2264 50.2338 81.7804V89.3563H52.2138V78.6724ZM52.2138 90.1333H50.2338C50.2338 90.1333 50.2338 91.6873 50.2338 93.2413V100.817H52.2138V90.1333ZM52.2138 101.594H50.2338C50.2338 101.594 50.2338 103.148 50.2338 104.702V105.091C50.2338 107.033 50.2338 109.17 50.2338 109.17V110.918V112.084H52.2138V111.113V101.594ZM52.2138 112.861H50.4318C50.4318 112.861 50.4318 114.415 50.4318 115.969V123.545H52.0158L52.2138 112.861ZM51.8178 124.322H50.2338C50.2338 124.322 50.2338 125.876 50.2338 127.43V135.006H51.4218L51.8178 124.322ZM51.4218 135.783H50.2338C50.2338 135.783 50.2338 137.337 50.2338 138.891V146.467H51.0258C51.0258 146.467 51.0258 144.913 51.2238 143.359L51.4218 135.783ZM51.0258 147.244H50.2338C50.2338 147.244 50.2338 148.798 50.2338 150.352V157.928H50.6298C50.6298 157.928 50.6298 156.374 50.8278 154.82L51.0258 147.244ZM50.6298 158.705H50.2338C50.2338 158.705 50.2338 160.259 50.2338 161.813V169.388V167.64C50.2338 167.252 50.2338 166.863 50.2338 166.475L50.6298 158.705Z" fill="white"/>
<path d="M51.2238 129.372V167.446L99.9318 119.854V81.5862L51.2238 129.372Z" fill="#0670FF"/>
<path d="M2.91174 81.9747V120.243L51.4217 167.834V129.761L2.91174 81.9747Z" fill="#0670FF"/>
</g>
<defs>
<clipPath id="clip0_10_43">
<rect width="99" height="169" fill="white"/>
</clipPath>
</defs>
</svg>
